<svg width="53" height="54" viewBox="0 0 53 54" fill="none" xmlns="http://www.w3.org/2000/svg">
<path d="M10.7625 37.2529L10.7625 36.7529L10.2625 36.7529C7.21573 36.7529 4.74583 34.283 4.74583 31.2363C4.74583 28.1895 7.21573 25.7196 10.2625 25.7196C13.3093 25.7196 15.7792 28.1895 15.7792 31.2363L15.779 31.2843L15.779 31.2849L15.7788 31.2993L15.7787 31.3101L15.7791 31.321L15.7792 31.3238L15.7792 52.2627L15.7792 52.7627L16.2792 52.7627L19.525 52.7627L20.025 52.7627L20.025 52.2627L20.0247 31.3176C20.0249 31.2905 20.025 31.2634 20.025 31.2363C20.025 25.8446 15.6542 21.4738 10.2625 21.4738C4.87082 21.4738 0.499999 25.8446 0.499999 31.2363C0.499999 36.628 4.87082 40.9988 10.2625 40.9988L10.7625 40.9988L10.7625 40.4988L10.7625 37.2529ZM24.0875 52.2627L24.0875 52.7627L24.5875 52.7627L27.8333 52.7627L28.3333 52.7627L28.3333 52.2627L28.3333 11.2627C28.3333 5.02492 23.9994 0.500197 18.5708 0.500198C13.1791 0.500198 8.80831 4.87102 8.80831 10.2627C8.80831 15.6544 13.1791 20.0252 18.5708 20.0252L19.0708 20.0252L19.0708 19.5252L19.0708 16.2794L19.0708 15.7794L18.5708 15.7794C15.524 15.7794 13.0541 13.3095 13.0541 10.2627C13.0541 7.21593 15.524 4.74603 18.5708 4.74603C21.6176 4.74603 24.0875 7.21592 24.0875 10.2627L24.0875 52.2627ZM35.7458 52.7627L36.2458 52.7627L36.2458 52.2627L36.2458 24.537C36.2458 21.1997 38.7404 18.6498 41.7624 18.6498C44.8092 18.6498 47.2791 21.1197 47.2791 24.1665C47.2791 27.2132 44.8092 29.6831 41.7625 29.6831L41.2625 29.6831L41.2625 30.1831L41.2625 33.429L41.2625 33.929L41.7625 33.929C47.1541 33.929 51.5249 29.5582 51.5249 24.1665C51.5249 18.7748 47.1541 14.404 41.7624 14.404C39.0953 14.404 36.652 15.281 34.8737 17.0404C33.0927 18.8024 32.025 21.4037 32.025 24.7627C32.025 29.3105 32.0187 36.1852 32.0125 41.9232C32.0093 44.7922 32.0062 47.3769 32.0039 49.2443L32.001 51.4535L32.0002 52.0531L32 52.2089L32 52.2486L32 52.2587L32 52.2612L32 52.2618C32 52.2619 32 52.262 32.5 52.2627L32 52.262L31.9993 52.7627L32.5 52.7627L35.7458 52.7627Z" fill="black" stroke="black"/>
</svg>
