<svg width="248" height="747" viewBox="0 0 248 747" fill="none" xmlns="http://www.w3.org/2000/svg">
<path d="M247.082 734.099C216.865 734.099 151.402 734.099 131.291 734.099C106.152 734.099 81.7751 724.196 69.5866 694.487C57.398 664.777 99.4995 640.5 99.4995 606.5C99.4995 572.5 61.2069 556.604 62.7305 556.604C64.2541 556.604 106.914 538.321 106.914 526.894C106.914 517.753 68.8248 504.295 55.8745 498.708C58.1598 498.708 79.6148 497.088 88.6311 493.376C101.581 488.043 106.914 468.227 106.914 459.086C106.914 449.944 109.961 439.279 87.1076 439.279C68.8248 439.279 32.2592 440.803 16.2617 441.565C33.7827 359.038 75.9855 166.875 77.2044 162V0" stroke="black" stroke-width="25"/>
</svg>
