<svg width="302" height="850" viewBox="0 0 302 850" fill="none" xmlns="http://www.w3.org/2000/svg">
<g style="mix-blend-mode:multiply">
<path d="M150.999 408.416C234.393 408.416 301.997 340.812 301.997 257.417C301.997 191.781 301.999 64.2976 301.999 -0.000366211L0.0017038 -0.000339809C0.00170941 64.1521 7.25834e-05 191.432 7.8352e-05 257.417C8.56426e-05 340.812 67.6043 408.416 150.999 408.416Z" fill="#E4BD0B"/>
</g>
<g style="mix-blend-mode:multiply">
<path d="M151.001 276.62C67.6064 276.62 0.0019413 344.225 0.00192672 427.619L0.0019852 850L301.999 850L301.999 427.619C301.999 344.225 234.395 276.62 151.001 276.62Z" fill="#2677BB"/>
</g>
<circle cx="151.001" cy="340.336" r="43.6412" fill="#1C1C04" stroke="white" stroke-width="17.4565"/>
<path d="M75.7461 186.232V192.953H64.3901V224.188H56.4075V192.953H45V186.232H75.7461Z" fill="black"/>
<path d="M92.7023 195.45C92.8396 195.45 92.9512 195.459 93.037 195.476C93.14 195.476 93.3546 195.485 93.6808 195.502V203.021C93.2173 202.97 92.8053 202.935 92.4448 202.918C92.0843 202.901 91.7924 202.892 91.5693 202.892C88.6165 202.892 86.6338 203.854 85.6209 205.776C85.0544 206.858 84.7711 208.523 84.7711 210.772V224.188H77.3807V196.12H84.3849V201.013C85.5179 199.141 86.505 197.862 87.3462 197.176C88.7195 196.026 90.5049 195.45 92.7023 195.45Z" fill="black"/>
<path d="M106.079 192.772H98.6373V186H106.079V192.772ZM98.6373 196.12H106.079V224.188H98.6373V196.12Z" fill="black"/>
<path d="M130.503 206.188C130.366 205.141 130.014 204.197 129.447 203.356C128.623 202.223 127.344 201.656 125.61 201.656C123.138 201.656 121.447 202.884 120.538 205.339C120.057 206.643 119.817 208.377 119.817 210.54C119.817 212.6 120.057 214.257 120.538 215.51C121.413 217.845 123.061 219.012 125.482 219.012C127.198 219.012 128.417 218.549 129.138 217.622C129.859 216.695 130.297 215.493 130.451 214.017H137.945C137.773 216.248 136.966 218.36 135.524 220.351C133.224 223.561 129.816 225.167 125.301 225.167C120.786 225.167 117.465 223.827 115.336 221.149C113.207 218.471 112.143 214.995 112.143 210.72C112.143 205.897 113.319 202.146 115.671 199.468C118.023 196.789 121.267 195.45 125.404 195.45C128.924 195.45 131.799 196.24 134.031 197.819C136.28 199.399 137.61 202.188 138.022 206.188H130.503Z" fill="black"/>
<path d="M143.545 186.361H150.755V206.806L159.897 196.249H168.987L159.176 206.987L169.373 224.188H160.515L153.794 212.188L150.755 215.356V224.188H143.545V186.361Z" fill="black"/>
<path d="M179.222 215.227C179.376 216.532 179.711 217.459 180.226 218.008C181.136 218.986 182.818 219.476 185.273 219.476C186.715 219.476 187.857 219.261 188.698 218.832C189.556 218.403 189.986 217.759 189.986 216.901C189.986 216.077 189.642 215.45 188.956 215.021C188.269 214.592 185.72 213.853 181.308 212.806C178.132 212.017 175.892 211.029 174.587 209.845C173.282 208.678 172.63 206.995 172.63 204.798C172.63 202.206 173.643 199.983 175.668 198.128C177.711 196.257 180.578 195.322 184.269 195.322C187.771 195.322 190.621 196.026 192.818 197.433C195.033 198.824 196.303 201.236 196.629 204.669H189.29C189.187 203.725 188.921 202.978 188.492 202.429C187.685 201.433 186.312 200.935 184.372 200.935C182.775 200.935 181.634 201.184 180.947 201.682C180.278 202.18 179.943 202.764 179.943 203.433C179.943 204.274 180.303 204.884 181.024 205.261C181.745 205.656 184.295 206.334 188.672 207.296C191.591 207.982 193.78 209.021 195.239 210.411C196.681 211.819 197.402 213.579 197.402 215.69C197.402 218.471 196.363 220.746 194.286 222.514C192.226 224.265 189.033 225.141 184.707 225.141C180.295 225.141 177.033 224.214 174.922 222.36C172.827 220.489 171.78 218.111 171.78 215.227H179.222Z" fill="black"/>
<path d="M214.461 201.425C212.761 201.425 211.44 201.957 210.495 203.021C209.568 204.085 208.985 205.527 208.744 207.347H220.152C220.032 205.407 219.439 203.94 218.375 202.944C217.328 201.931 216.023 201.425 214.461 201.425ZM214.461 195.373C216.796 195.373 218.899 195.811 220.77 196.686C222.641 197.562 224.186 198.944 225.405 200.832C226.504 202.497 227.216 204.429 227.542 206.626C227.731 207.914 227.808 209.768 227.774 212.188H208.564C208.667 215.004 209.551 216.978 211.216 218.111C212.229 218.815 213.448 219.167 214.873 219.167C216.384 219.167 217.611 218.737 218.555 217.879C219.07 217.416 219.525 216.772 219.92 215.948H227.413C227.225 217.613 226.358 219.304 224.813 221.021C222.409 223.75 219.045 225.115 214.718 225.115C211.148 225.115 207.998 223.965 205.268 221.664C202.538 219.364 201.174 215.622 201.174 210.437C201.174 205.579 202.401 201.854 204.856 199.262C207.328 196.669 210.53 195.373 214.461 195.373Z" fill="black"/>
<path d="M212.342 205.009C212.844 204.434 213.549 204.146 214.454 204.146C215.286 204.146 215.981 204.42 216.539 204.967C217.106 205.505 217.421 206.297 217.485 207.345H211.409C211.537 206.362 211.848 205.583 212.342 205.009Z" fill="black"/>
<path d="M203.806 192.493C203.806 192.493 208.543 189.581 214.583 189.555C220.623 189.528 225.479 192.397 225.479 192.397" stroke="black" stroke-width="5.21297" stroke-linejoin="bevel"/>
<path d="M214.461 201.424C212.762 201.424 211.44 201.957 210.496 203.021C209.568 204.085 208.985 205.527 208.744 207.347H220.152C220.032 205.407 219.44 203.939 218.375 202.944C217.328 201.931 216.023 201.424 214.461 201.424ZM214.461 195.373C216.796 195.373 218.899 195.811 220.77 196.686C222.641 197.562 224.186 198.944 225.405 200.832C226.504 202.497 227.216 204.429 227.542 206.626C227.731 207.914 227.808 209.768 227.774 212.188H208.564C208.667 215.004 209.551 216.978 211.217 218.111C212.229 218.815 213.448 219.167 214.873 219.167C216.384 219.167 217.611 218.737 218.555 217.879C219.07 217.415 219.525 216.772 219.92 215.948H227.414C227.225 217.613 226.358 219.304 224.813 221.021C222.409 223.75 219.045 225.115 214.719 225.115C211.148 225.115 207.998 223.965 205.268 221.664C202.539 219.364 201.174 215.622 201.174 210.437C201.174 205.579 202.401 201.854 204.856 199.261C207.328 196.669 210.53 195.373 214.461 195.373Z" fill="black"/>
<path d="M242.191 205.009C242.694 204.434 243.399 204.146 244.304 204.146C245.136 204.146 245.831 204.42 246.389 204.967C246.956 205.505 247.271 206.297 247.335 207.345H241.259C241.387 206.362 241.698 205.583 242.191 205.009Z" fill="black"/>
<path d="M233.656 192.493C233.656 192.493 238.393 189.581 244.433 189.555C250.473 189.528 255.329 192.397 255.329 192.397" stroke="black" stroke-width="5.21297" stroke-linejoin="bevel"/>
<path d="M244.311 201.424C242.611 201.424 241.29 201.957 240.345 203.021C239.418 204.085 238.835 205.527 238.594 207.347H250.002C249.882 205.407 249.289 203.939 248.225 202.944C247.178 201.931 245.873 201.424 244.311 201.424ZM244.311 195.373C246.646 195.373 248.749 195.811 250.62 196.686C252.491 197.562 254.036 198.944 255.255 200.832C256.354 202.497 257.066 204.429 257.392 206.626C257.581 207.914 257.658 209.768 257.624 212.188H238.414C238.517 215.004 239.401 216.978 241.066 218.111C242.079 218.815 243.298 219.167 244.723 219.167C246.234 219.167 247.461 218.737 248.405 217.879C248.92 217.415 249.375 216.772 249.77 215.948H257.263C257.075 217.613 256.208 219.304 254.663 221.021C252.259 223.75 248.895 225.115 244.568 225.115C240.998 225.115 237.848 223.965 235.118 221.664C232.388 219.364 231.024 215.622 231.024 210.437C231.024 205.579 232.251 201.854 234.706 199.261C237.178 196.669 240.38 195.373 244.311 195.373Z" fill="black"/>
<path d="M39.3945 480.828C37.5898 480.828 36.1862 481.393 35.1836 482.523C34.1992 483.654 33.5794 485.185 33.3242 487.117H45.4375C45.3099 485.057 44.681 483.499 43.5508 482.441C42.4388 481.366 41.0534 480.828 39.3945 480.828ZM39.3945 474.402C41.8737 474.402 44.1068 474.867 46.0938 475.797C48.0807 476.727 49.7214 478.194 51.0156 480.199C52.1823 481.967 52.9388 484.018 53.2852 486.352C53.4857 487.719 53.5677 489.688 53.5312 492.258H33.1328C33.2422 495.247 34.181 497.344 35.9492 498.547C37.0247 499.294 38.319 499.668 39.832 499.668C41.4362 499.668 42.7396 499.212 43.7422 498.301C44.2891 497.809 44.7721 497.125 45.1914 496.25H53.1484C52.9479 498.018 52.0273 499.814 50.3867 501.637C47.8346 504.535 44.2617 505.984 39.668 505.984C35.8763 505.984 32.5312 504.763 29.6328 502.32C26.7344 499.878 25.2852 495.904 25.2852 490.398C25.2852 485.24 26.5885 481.284 29.1953 478.531C31.8203 475.779 35.2201 474.402 39.3945 474.402ZM74.2042 474.484C77.2849 474.484 79.8006 475.296 81.7511 476.918C83.7198 478.522 84.7042 481.193 84.7042 484.93V505H76.7198V486.871C76.7198 485.303 76.5102 484.1 76.0909 483.262C75.3253 481.73 73.867 480.965 71.7159 480.965C69.0727 480.965 67.2589 482.086 66.2745 484.328C65.7641 485.513 65.5089 487.026 65.5089 488.867V505H57.7433V475.25H65.2628V479.598C66.2654 478.066 67.2133 476.964 68.1066 476.289C69.7107 475.086 71.7433 474.484 74.2042 474.484ZM98.9514 471.641H91.1584V464.449H98.9514V471.641ZM87.4123 510.715C87.8498 510.751 88.1597 510.77 88.342 510.77C88.5243 510.788 88.6884 510.797 88.8342 510.797C89.5998 510.797 90.1741 510.605 90.5569 510.223C90.9579 509.858 91.1584 509.138 91.1584 508.062V475.332H98.9514V508.199C98.9514 511.207 98.359 513.431 97.1741 514.871C95.9892 516.311 93.6649 517.031 90.2014 517.031C89.9644 517.031 89.609 517.022 89.135 517.004C88.6793 516.986 88.1051 516.967 87.4123 516.949V510.715ZM118.64 499.504C120.919 499.504 122.669 498.693 123.89 497.07C125.111 495.448 125.722 493.142 125.722 490.152C125.722 487.163 125.111 484.866 123.89 483.262C122.669 481.639 120.919 480.828 118.64 480.828C116.361 480.828 114.602 481.639 113.363 483.262C112.141 484.866 111.531 487.163 111.531 490.152C111.531 493.142 112.141 495.448 113.363 497.07C114.602 498.693 116.361 499.504 118.64 499.504ZM133.898 490.152C133.898 494.527 132.64 498.273 130.124 501.391C127.609 504.49 123.79 506.039 118.667 506.039C113.545 506.039 109.726 504.49 107.21 501.391C104.695 498.273 103.437 494.527 103.437 490.152C103.437 485.85 104.695 482.122 107.21 478.969C109.726 475.815 113.545 474.238 118.667 474.238C123.79 474.238 127.609 475.815 130.124 478.969C132.64 482.122 133.898 485.85 133.898 490.152ZM139.586 510.715L140.571 510.77C141.336 510.806 142.066 510.779 142.758 510.688C143.451 510.596 144.034 510.387 144.508 510.059C144.964 509.749 145.383 509.102 145.766 508.117C146.167 507.133 146.331 506.531 146.258 506.312L135.321 475.195H143.989L150.497 497.18L156.649 475.195H164.934L154.707 504.508C152.739 510.159 151.18 513.659 150.032 515.008C148.883 516.375 146.586 517.059 143.141 517.059C142.448 517.059 141.892 517.049 141.473 517.031C141.054 517.031 140.425 517.004 139.586 516.949V510.715Z" fill="white"/>
<path d="M28.8398 569.715L29.8242 569.77C30.5898 569.806 31.319 569.779 32.0117 569.688C32.7044 569.596 33.2878 569.387 33.7617 569.059C34.2174 568.749 34.6367 568.102 35.0195 567.117C35.4206 566.133 35.5846 565.531 35.5117 565.312L24.5742 534.195H33.2422L39.75 556.18L45.9023 534.195H54.1875L43.9609 563.508C41.9922 569.159 40.4336 572.659 39.2852 574.008C38.1367 575.375 35.8398 576.059 32.3945 576.059C31.7018 576.059 31.1458 576.049 30.7266 576.031C30.3073 576.031 29.6784 576.004 28.8398 575.949V569.715ZM70.4997 558.504C72.7783 558.504 74.5283 557.693 75.7497 556.07C76.971 554.448 77.5817 552.142 77.5817 549.152C77.5817 546.163 76.971 543.866 75.7497 542.262C74.5283 540.639 72.7783 539.828 70.4997 539.828C68.221 539.828 66.4619 540.639 65.2223 542.262C64.001 543.866 63.3903 546.163 63.3903 549.152C63.3903 552.142 64.001 554.448 65.2223 556.07C66.4619 557.693 68.221 558.504 70.4997 558.504ZM85.7575 549.152C85.7575 553.527 84.4997 557.273 81.9841 560.391C79.4684 563.49 75.6494 565.039 70.527 565.039C65.4046 565.039 61.5856 563.49 59.07 560.391C56.5544 557.273 55.2966 553.527 55.2966 549.152C55.2966 544.85 56.5544 541.122 59.07 537.969C61.5856 534.815 65.4046 533.238 70.527 533.238C75.6494 533.238 79.4684 534.815 81.9841 537.969C84.4997 541.122 85.7575 544.85 85.7575 549.152ZM98.0086 534.195V552.16C98.0086 553.855 98.2091 555.132 98.6102 555.988C99.3211 557.501 100.716 558.258 102.794 558.258C105.455 558.258 107.278 557.182 108.263 555.031C108.773 553.865 109.028 552.324 109.028 550.41V534.195H116.93V564H109.356V559.789C109.283 559.88 109.101 560.154 108.809 560.609C108.518 561.065 108.171 561.466 107.77 561.812C106.549 562.906 105.364 563.654 104.216 564.055C103.085 564.456 101.755 564.656 100.223 564.656C95.812 564.656 92.8406 563.07 91.3094 559.898C90.4526 558.148 90.0242 555.569 90.0242 552.16V534.195H98.0086ZM138.985 533.484C139.131 533.484 139.249 533.493 139.34 533.512C139.45 533.512 139.678 533.521 140.024 533.539V541.523C139.532 541.469 139.094 541.432 138.711 541.414C138.329 541.396 138.019 541.387 137.782 541.387C134.646 541.387 132.541 542.408 131.465 544.449C130.864 545.598 130.563 547.366 130.563 549.754V564H122.715V534.195H130.153V539.391C131.356 537.404 132.404 536.046 133.297 535.316C134.756 534.095 136.652 533.484 138.985 533.484ZM176.391 533.484C176.537 533.484 176.655 533.493 176.747 533.512C176.856 533.512 177.084 533.521 177.43 533.539V541.523C176.938 541.469 176.5 541.432 176.118 541.414C175.735 541.396 175.425 541.387 175.188 541.387C172.053 541.387 169.947 542.408 168.872 544.449C168.27 545.598 167.969 547.366 167.969 549.754V564H160.122V534.195H167.559V539.391C168.762 537.404 169.81 536.046 170.704 535.316C172.162 534.095 174.058 533.484 176.391 533.484ZM190.036 530.641H182.133V523.449H190.036V530.641ZM182.133 534.195H190.036V564H182.133V534.195ZM208.602 533.484C210.407 533.484 212.011 533.885 213.415 534.688C214.818 535.471 215.958 536.565 216.833 537.969V523.75H224.735V564H217.161V559.871C216.049 561.639 214.782 562.924 213.36 563.727C211.938 564.529 210.17 564.93 208.055 564.93C204.573 564.93 201.638 563.526 199.25 560.719C196.881 557.893 195.696 554.275 195.696 549.863C195.696 544.777 196.862 540.776 199.196 537.859C201.547 534.943 204.683 533.484 208.602 533.484ZM210.297 558.367C212.503 558.367 214.18 557.547 215.329 555.906C216.477 554.266 217.051 552.142 217.051 549.535C217.051 545.889 216.131 543.283 214.29 541.715C213.159 540.767 211.847 540.293 210.352 540.293C208.073 540.293 206.396 541.159 205.321 542.891C204.263 544.604 203.735 546.737 203.735 549.289C203.735 552.042 204.273 554.247 205.348 555.906C206.442 557.547 208.092 558.367 210.297 558.367ZM243.602 539.828C241.797 539.828 240.394 540.393 239.391 541.523C238.407 542.654 237.787 544.185 237.532 546.117H249.645C249.517 544.057 248.888 542.499 247.758 541.441C246.646 540.366 245.261 539.828 243.602 539.828ZM243.602 533.402C246.081 533.402 248.314 533.867 250.301 534.797C252.288 535.727 253.929 537.194 255.223 539.199C256.39 540.967 257.146 543.018 257.493 545.352C257.693 546.719 257.775 548.688 257.739 551.258H237.34C237.45 554.247 238.388 556.344 240.157 557.547C241.232 558.294 242.527 558.668 244.04 558.668C245.644 558.668 246.947 558.212 247.95 557.301C248.497 556.809 248.98 556.125 249.399 555.25H257.356C257.155 557.018 256.235 558.814 254.594 560.637C252.042 563.535 248.469 564.984 243.875 564.984C240.084 564.984 236.739 563.763 233.84 561.32C230.942 558.878 229.493 554.904 229.493 549.398C229.493 544.24 230.796 540.284 233.403 537.531C236.028 534.779 239.428 533.402 243.602 533.402Z" fill="white"/>
<path d="M41.6914 594.195H49.5938L54.1328 615.66L58.7812 594.195H66.9023L58.2617 624H50.25L45.5742 602.289L40.8438 624H32.75L24.3828 594.195H32.75L37.3984 615.578L41.6914 594.195ZM79.2344 590.641H71.332V583.449H79.2344V590.641ZM71.332 594.195H79.2344V624H71.332V594.195ZM83.7461 600.02V594.469H87.9023V586.156H95.6133V594.469H100.453V600.02H95.6133V615.77C95.6133 616.991 95.7682 617.757 96.0781 618.066C96.388 618.358 97.3359 618.504 98.9219 618.504C99.1589 618.504 99.4049 618.504 99.6602 618.504C99.9336 618.486 100.198 618.467 100.453 618.449V624.273L96.7617 624.41C93.0794 624.538 90.5638 623.9 89.2148 622.496C88.3398 621.603 87.9023 620.227 87.9023 618.367V600.02H83.7461ZM121.891 593.43C123.732 593.43 125.4 593.749 126.895 594.387C128.408 595.025 129.647 596 130.613 597.312C131.434 598.424 131.935 599.573 132.117 600.758C132.299 601.924 132.391 603.839 132.391 606.5V624H124.434V605.871C124.434 604.267 124.16 602.973 123.613 601.988C122.902 600.603 121.553 599.91 119.566 599.91C117.507 599.91 115.939 600.603 114.863 601.988C113.806 603.355 113.277 605.315 113.277 607.867V624H105.512V583.832H113.277V598.078C114.408 596.346 115.711 595.143 117.188 594.469C118.682 593.776 120.25 593.43 121.891 593.43ZM153.062 618.504C155.341 618.504 157.091 617.693 158.312 616.07C159.534 614.448 160.145 612.142 160.145 609.152C160.145 606.163 159.534 603.866 158.312 602.262C157.091 600.639 155.341 599.828 153.062 599.828C150.784 599.828 149.025 600.639 147.785 602.262C146.564 603.866 145.953 606.163 145.953 609.152C145.953 612.142 146.564 614.448 147.785 616.07C149.025 617.693 150.784 618.504 153.062 618.504ZM168.32 609.152C168.32 613.527 167.062 617.273 164.547 620.391C162.031 623.49 158.212 625.039 153.09 625.039C147.967 625.039 144.148 623.49 141.633 620.391C139.117 617.273 137.859 613.527 137.859 609.152C137.859 604.85 139.117 601.122 141.633 597.969C144.148 594.815 147.967 593.238 153.09 593.238C158.212 593.238 162.031 594.815 164.547 597.969C167.062 601.122 168.32 604.85 168.32 609.152ZM181.691 594.195V612.16C181.691 613.855 181.892 615.132 182.293 615.988C183.004 617.501 184.398 618.258 186.477 618.258C189.138 618.258 190.961 617.182 191.945 615.031C192.456 613.865 192.711 612.324 192.711 610.41V594.195H200.613V624H193.039V619.789C192.966 619.88 192.784 620.154 192.492 620.609C192.201 621.065 191.854 621.466 191.453 621.812C190.232 622.906 189.047 623.654 187.898 624.055C186.768 624.456 185.438 624.656 183.906 624.656C179.495 624.656 176.523 623.07 174.992 619.898C174.135 618.148 173.707 615.569 173.707 612.16V594.195H181.691ZM205.098 600.02V594.469H209.254V586.156H216.965V594.469H221.805V600.02H216.965V615.77C216.965 616.991 217.12 617.757 217.43 618.066C217.74 618.358 218.688 618.504 220.273 618.504C220.51 618.504 220.757 618.504 221.012 618.504C221.285 618.486 221.549 618.467 221.805 618.449V624.273L218.113 624.41C214.431 624.538 211.915 623.9 210.566 622.496C209.691 621.603 209.254 620.227 209.254 618.367V600.02H205.098Z" fill="white"/>
<path d="M45.4375 657.887C45.2917 656.775 44.918 655.772 44.3164 654.879C43.4414 653.676 42.0833 653.074 40.2422 653.074C37.6172 653.074 35.8216 654.378 34.8555 656.984C34.3451 658.37 34.0898 660.211 34.0898 662.508C34.0898 664.695 34.3451 666.454 34.8555 667.785C35.7852 670.264 37.5352 671.504 40.1055 671.504C41.9284 671.504 43.2227 671.012 43.9883 670.027C44.7539 669.043 45.2188 667.767 45.3828 666.199H53.3398C53.1576 668.569 52.3008 670.811 50.7695 672.926C48.3268 676.335 44.7083 678.039 39.9141 678.039C35.1198 678.039 31.5924 676.617 29.332 673.773C27.0716 670.93 25.9414 667.238 25.9414 662.699C25.9414 657.577 27.1901 653.594 29.6875 650.75C32.1849 647.906 35.6302 646.484 40.0234 646.484C43.7604 646.484 46.8138 647.323 49.1836 649C51.5716 650.677 52.9844 653.639 53.4219 657.887H45.4375ZM75.8022 662.508C75.31 662.818 74.8087 663.073 74.2983 663.273C73.8061 663.456 73.1225 663.629 72.2475 663.793L70.4975 664.121C68.8569 664.413 67.6811 664.768 66.9702 665.188C65.767 665.898 65.1655 667.001 65.1655 668.496C65.1655 669.827 65.5301 670.793 66.2592 671.395C67.0066 671.978 67.909 672.27 68.9662 672.27C70.6433 672.27 72.1837 671.777 73.5873 670.793C75.0092 669.809 75.7475 668.013 75.8022 665.406V662.508ZM71.0717 658.871C72.5118 658.689 73.5418 658.461 74.1616 658.188C75.2735 657.714 75.8295 656.975 75.8295 655.973C75.8295 654.751 75.4011 653.913 74.5444 653.457C73.7058 652.983 72.4662 652.746 70.8256 652.746C68.9845 652.746 67.6811 653.202 66.9155 654.113C66.3686 654.788 66.004 655.699 65.8217 656.848H58.3022C58.4662 654.241 59.1954 652.099 60.4897 650.422C62.5496 647.797 66.086 646.484 71.0991 646.484C74.3621 646.484 77.2605 647.132 79.7944 648.426C82.3282 649.72 83.5952 652.163 83.5952 655.754V669.426C83.5952 670.374 83.6134 671.522 83.6498 672.871C83.7045 673.892 83.8595 674.585 84.1147 674.949C84.3699 675.314 84.7527 675.615 85.2631 675.852V677H76.7866C76.5496 676.398 76.3855 675.833 76.2944 675.305C76.2032 674.776 76.1303 674.174 76.0756 673.5C75.0001 674.667 73.7605 675.66 72.3569 676.48C70.6798 677.447 68.784 677.93 66.6694 677.93C63.9715 677.93 61.7384 677.164 59.9702 675.633C58.2202 674.083 57.3452 671.896 57.3452 669.07C57.3452 665.406 58.7579 662.754 61.5834 661.113C63.1329 660.22 65.4116 659.582 68.4194 659.199L71.0717 658.871ZM107.288 646.484C107.434 646.484 107.552 646.493 107.643 646.512C107.753 646.512 107.981 646.521 108.327 646.539V654.523C107.835 654.469 107.397 654.432 107.015 654.414C106.632 654.396 106.322 654.387 106.085 654.387C102.949 654.387 100.844 655.408 99.7684 657.449C99.1669 658.598 98.8661 660.366 98.8661 662.754V677H91.0184V647.195H98.4559V652.391C99.6591 650.404 100.707 649.046 101.6 648.316C103.059 647.095 104.955 646.484 107.288 646.484ZM111.129 657.695H126.825V665.078H111.129V657.695Z" fill="white"/>
<path d="M33.707 724.484C33.8711 725.87 34.2266 726.854 34.7734 727.438C35.7396 728.477 37.526 728.996 40.1328 728.996C41.6641 728.996 42.8763 728.768 43.7695 728.312C44.681 727.857 45.1367 727.173 45.1367 726.262C45.1367 725.387 44.7721 724.721 44.043 724.266C43.3138 723.81 40.6068 723.026 35.9219 721.914C32.5495 721.076 30.1706 720.027 28.7852 718.77C27.3997 717.53 26.707 715.743 26.707 713.41C26.707 710.658 27.7826 708.297 29.9336 706.328C32.1029 704.341 35.1471 703.348 39.0664 703.348C42.7852 703.348 45.8112 704.095 48.1445 705.59C50.4961 707.066 51.8451 709.628 52.1914 713.273H44.3984C44.2891 712.271 44.0065 711.478 43.5508 710.895C42.694 709.837 41.2357 709.309 39.1758 709.309C37.4805 709.309 36.2682 709.573 35.5391 710.102C34.8281 710.63 34.4727 711.25 34.4727 711.961C34.4727 712.854 34.8555 713.501 35.6211 713.902C36.3867 714.322 39.0938 715.042 43.7422 716.062C46.8411 716.792 49.1654 717.895 50.7148 719.371C52.2461 720.866 53.0117 722.734 53.0117 724.977C53.0117 727.93 51.9089 730.345 49.7031 732.223C47.5156 734.082 44.125 735.012 39.5312 735.012C34.8464 735.012 31.3828 734.027 29.1406 732.059C26.9167 730.072 25.8047 727.547 25.8047 724.484H33.707ZM67.3803 700.641H59.478V693.449H67.3803V700.641ZM59.478 704.195H67.3803V734H59.478V704.195ZM93.3153 714.887C93.1695 713.775 92.7958 712.772 92.1942 711.879C91.3192 710.676 89.9611 710.074 88.12 710.074C85.495 710.074 83.6994 711.378 82.7333 713.984C82.2229 715.37 81.9677 717.211 81.9677 719.508C81.9677 721.695 82.2229 723.454 82.7333 724.785C83.663 727.264 85.413 728.504 87.9833 728.504C89.8062 728.504 91.1005 728.012 91.8661 727.027C92.6317 726.043 93.0966 724.767 93.2606 723.199H101.218C101.035 725.569 100.179 727.811 98.6473 729.926C96.2046 733.335 92.5861 735.039 87.7919 735.039C82.9976 735.039 79.4703 733.617 77.2098 730.773C74.9494 727.93 73.8192 724.238 73.8192 719.699C73.8192 714.577 75.0679 710.594 77.5653 707.75C80.0627 704.906 83.508 703.484 87.9012 703.484C91.6382 703.484 94.6916 704.323 97.0614 706C99.4494 707.677 100.862 710.639 101.3 714.887H93.3153ZM107.164 693.832H114.821V715.543L124.528 704.332H134.18L123.762 715.734L134.59 734H125.184L118.047 721.258L114.821 724.621V734H107.164V693.832ZM155.494 703.484C158.575 703.484 161.09 704.296 163.041 705.918C165.01 707.522 165.994 710.193 165.994 713.93V734H158.01V715.871C158.01 714.303 157.8 713.1 157.381 712.262C156.615 710.73 155.157 709.965 153.006 709.965C150.362 709.965 148.549 711.086 147.564 713.328C147.054 714.513 146.799 716.026 146.799 717.867V734H139.033V704.25H146.552V708.598C147.555 707.066 148.503 705.964 149.396 705.289C151 704.086 153.033 703.484 155.494 703.484ZM185.53 709.828C183.726 709.828 182.322 710.393 181.32 711.523C180.335 712.654 179.715 714.185 179.46 716.117H191.573C191.446 714.057 190.817 712.499 189.687 711.441C188.575 710.366 187.189 709.828 185.53 709.828ZM185.53 703.402C188.01 703.402 190.243 703.867 192.23 704.797C194.217 705.727 195.857 707.194 197.152 709.199C198.318 710.967 199.075 713.018 199.421 715.352C199.622 716.719 199.704 718.688 199.667 721.258H179.269C179.378 724.247 180.317 726.344 182.085 727.547C183.161 728.294 184.455 728.668 185.968 728.668C187.572 728.668 188.876 728.212 189.878 727.301C190.425 726.809 190.908 726.125 191.327 725.25H199.284C199.084 727.018 198.163 728.814 196.523 730.637C193.971 733.535 190.398 734.984 185.804 734.984C182.012 734.984 178.667 733.763 175.769 731.32C172.87 728.878 171.421 724.904 171.421 719.398C171.421 714.24 172.724 710.284 175.331 707.531C177.956 704.779 181.356 703.402 185.53 703.402ZM211.575 724.484C211.739 725.87 212.094 726.854 212.641 727.438C213.607 728.477 215.394 728.996 218.001 728.996C219.532 728.996 220.744 728.768 221.637 728.312C222.549 727.857 223.005 727.173 223.005 726.262C223.005 725.387 222.64 724.721 221.911 724.266C221.182 723.81 218.475 723.026 213.79 721.914C210.417 721.076 208.038 720.027 206.653 718.77C205.268 717.53 204.575 715.743 204.575 713.41C204.575 710.658 205.65 708.297 207.801 706.328C209.971 704.341 213.015 703.348 216.934 703.348C220.653 703.348 223.679 704.095 226.012 705.59C228.364 707.066 229.713 709.628 230.059 713.273H222.266C222.157 712.271 221.874 711.478 221.419 710.895C220.562 709.837 219.103 709.309 217.044 709.309C215.348 709.309 214.136 709.573 213.407 710.102C212.696 710.63 212.34 711.25 212.34 711.961C212.34 712.854 212.723 713.501 213.489 713.902C214.255 714.322 216.962 715.042 221.61 716.062C224.709 716.792 227.033 717.895 228.583 719.371C230.114 720.866 230.88 722.734 230.88 724.977C230.88 727.93 229.777 730.345 227.571 732.223C225.383 734.082 221.993 735.012 217.399 735.012C212.714 735.012 209.251 734.027 207.008 732.059C204.784 730.072 203.673 727.547 203.673 724.484H211.575ZM243.307 724.484C243.471 725.87 243.826 726.854 244.373 727.438C245.339 728.477 247.126 728.996 249.732 728.996C251.264 728.996 252.476 728.768 253.369 728.312C254.281 727.857 254.736 727.173 254.736 726.262C254.736 725.387 254.372 724.721 253.643 724.266C252.913 723.81 250.206 723.026 245.522 721.914C242.149 721.076 239.77 720.027 238.385 718.77C236.999 717.53 236.307 715.743 236.307 713.41C236.307 710.658 237.382 708.297 239.533 706.328C241.703 704.341 244.747 703.348 248.666 703.348C252.385 703.348 255.411 704.095 257.744 705.59C260.096 707.066 261.445 709.628 261.791 713.273H253.998C253.889 712.271 253.606 711.478 253.15 710.895C252.294 709.837 250.835 709.309 248.775 709.309C247.08 709.309 245.868 709.573 245.139 710.102C244.428 710.63 244.072 711.25 244.072 711.961C244.072 712.854 244.455 713.501 245.221 713.902C245.986 714.322 248.693 715.042 253.342 716.062C256.441 716.792 258.765 717.895 260.315 719.371C261.846 720.866 262.611 722.734 262.611 724.977C262.611 727.93 261.509 730.345 259.303 732.223C257.115 734.082 253.725 735.012 249.131 735.012C244.446 735.012 240.982 734.027 238.74 732.059C236.516 730.072 235.404 727.547 235.404 724.484H243.307Z" fill="white"/>
</svg>
