<svg width="415" height="747" viewBox="0 0 415 747" fill="none" xmlns="http://www.w3.org/2000/svg">
<path d="M414.082 734.099C383.865 734.099 318.402 734.099 298.291 734.099C273.152 734.099 248.775 724.196 236.587 694.487C224.398 664.777 266.5 640.5 266.5 606.5C266.5 572.5 228.207 556.604 229.731 556.604C231.254 556.604 273.914 538.321 273.914 526.894C273.914 517.753 235.825 504.295 222.874 498.708C225.16 498.708 246.615 497.088 255.631 493.376C268.581 488.043 273.914 468.227 273.914 459.086C273.914 449.944 276.961 439.279 254.108 439.279C235.825 439.279 199.259 440.803 183.262 441.565C200.783 359.038 242.986 166.875 244.204 162V0" stroke="black" stroke-width="25"/>
<path d="M0 529.278H153.501" stroke="black" stroke-width="22.703"/>
<path d="M30.6992 444C37.6607 460.298 59.0186 492.893 88.7582 492.893C118.498 492.893 144.311 492.893 153.5 492.893" stroke="black" stroke-width="22.703"/>
<path d="M30.6992 613.42C37.6607 597.122 59.0186 564.527 88.7582 564.527C118.498 564.527 144.311 564.527 153.5 564.527" stroke="black" stroke-width="22.703"/>
</svg>
