<svg width="160" height="257" viewBox="0 0 160 257" fill="none" xmlns="http://www.w3.org/2000/svg">
<circle cx="34" cy="34" r="34" fill="#457C39"/>
<path d="M47.7578 19.4531V25.5703H37.4219V54H30.1562V25.5703H19.7734V19.4531H47.7578Z" fill="white"/>
<circle cx="126" cy="34" r="34" fill="#2677BB"/>
<path d="M118.875 23.4531V32.7344H127.055C128.68 32.7344 129.898 32.5469 130.711 32.1719C132.148 31.5156 132.867 30.2188 132.867 28.2812C132.867 26.1875 132.172 24.7812 130.781 24.0625C130 23.6562 128.828 23.4531 127.266 23.4531H118.875ZM128.766 17.4531C131.188 17.5 133.047 17.7969 134.344 18.3438C135.656 18.8906 136.766 19.6953 137.672 20.7578C138.422 21.6328 139.016 22.6016 139.453 23.6641C139.891 24.7266 140.109 25.9375 140.109 27.2969C140.109 28.9375 139.695 30.5547 138.867 32.1484C138.039 33.7266 136.672 34.8438 134.766 35.5C136.359 36.1406 137.484 37.0547 138.141 38.2422C138.812 39.4141 139.148 41.2109 139.148 43.6328V45.9531C139.148 47.5312 139.211 48.6016 139.336 49.1641C139.523 50.0547 139.961 50.7109 140.648 51.1328V52H132.703C132.484 51.2344 132.328 50.6172 132.234 50.1484C132.047 49.1797 131.945 48.1875 131.93 47.1719L131.883 43.9609C131.852 41.7578 131.445 40.2891 130.664 39.5547C129.898 38.8203 128.453 38.4531 126.328 38.4531H118.875V52H111.82V17.4531H128.766Z" fill="white"/>
<circle cx="34" cy="129" r="34" fill="#E4BD0B"/>
<path d="M37.2656 148H30.0938V113.453H37.2656V148Z" fill="white"/>
<circle cx="126" cy="129" r="34" fill="black"/>
<path d="M110.156 130.008C110.156 123.977 111.773 119.328 115.008 116.062C117.82 113.219 121.398 111.797 125.742 111.797C131.555 111.797 135.805 113.703 138.492 117.516C139.977 119.656 140.773 121.805 140.883 123.961H133.664C133.195 122.305 132.594 121.055 131.859 120.211C130.547 118.711 128.602 117.961 126.023 117.961C123.398 117.961 121.328 119.023 119.812 121.148C118.297 123.258 117.539 126.25 117.539 130.125C117.539 134 118.336 136.906 119.93 138.844C121.539 140.766 123.578 141.727 126.047 141.727C128.578 141.727 130.508 140.898 131.836 139.242C132.57 138.352 133.18 137.016 133.664 135.234H140.812C140.188 139 138.586 142.062 136.008 144.422C133.445 146.781 130.156 147.961 126.141 147.961C121.172 147.961 117.266 146.367 114.422 143.18C111.578 139.977 110.156 135.586 110.156 130.008Z" fill="white"/>
<circle cx="34" cy="223" r="34" fill="black"/>
<path d="M18.1562 224.008C18.1562 217.977 19.7734 213.328 23.0078 210.062C25.8203 207.219 29.3984 205.797 33.7422 205.797C39.5547 205.797 43.8047 207.703 46.4922 211.516C47.9766 213.656 48.7734 215.805 48.8828 217.961H41.6641C41.1953 216.305 40.5938 215.055 39.8594 214.211C38.5469 212.711 36.6016 211.961 34.0234 211.961C31.3984 211.961 29.3281 213.023 27.8125 215.148C26.2969 217.258 25.5391 220.25 25.5391 224.125C25.5391 228 26.3359 230.906 27.9297 232.844C29.5391 234.766 31.5781 235.727 34.0469 235.727C36.5781 235.727 38.5078 234.898 39.8359 233.242C40.5703 232.352 41.1797 231.016 41.6641 229.234H48.8125C48.1875 233 46.5859 236.062 44.0078 238.422C41.4453 240.781 38.1562 241.961 34.1406 241.961C29.1719 241.961 25.2656 240.367 22.4219 237.18C19.5781 233.977 18.1562 229.586 18.1562 224.008Z" fill="white"/>
<circle cx="126" cy="223" r="34" fill="#E4BD0B"/>
<path d="M117.883 230.336C118.102 231.914 118.531 233.094 119.172 233.875C120.344 235.297 122.352 236.008 125.195 236.008C126.898 236.008 128.281 235.82 129.344 235.445C131.359 234.727 132.367 233.391 132.367 231.438C132.367 230.297 131.867 229.414 130.867 228.789C129.867 228.18 128.297 227.641 126.156 227.172L122.5 226.352C118.906 225.539 116.422 224.656 115.047 223.703C112.719 222.109 111.555 219.617 111.555 216.227C111.555 213.133 112.68 210.562 114.93 208.516C117.18 206.469 120.484 205.445 124.844 205.445C128.484 205.445 131.586 206.414 134.148 208.352C136.727 210.273 138.078 213.07 138.203 216.742H131.266C131.141 214.664 130.234 213.188 128.547 212.312C127.422 211.734 126.023 211.445 124.352 211.445C122.492 211.445 121.008 211.82 119.898 212.57C118.789 213.32 118.234 214.367 118.234 215.711C118.234 216.945 118.781 217.867 119.875 218.477C120.578 218.883 122.078 219.359 124.375 219.906L130.328 221.336C132.938 221.961 134.906 222.797 136.234 223.844C138.297 225.469 139.328 227.82 139.328 230.898C139.328 234.055 138.117 236.68 135.695 238.773C133.289 240.852 129.883 241.891 125.477 241.891C120.977 241.891 117.438 240.867 114.859 238.82C112.281 236.758 110.992 233.93 110.992 230.336H117.883Z" fill="white"/>
</svg>
