<svg width="260" height="260" viewBox="0 0 260 260" fill="none" xmlns="http://www.w3.org/2000/svg">
<path d="M127.292 40.6247C117.738 40.6236 108.395 43.4295 100.423 48.6936C92.4513 53.9578 86.2016 61.4482 82.4508 70.2344C78.7 79.0205 77.6134 88.7151 79.3259 98.1136C81.0384 107.512 85.4746 116.2 92.0833 123.099V125.412C86.8485 124.138 81.4078 123.954 76.0987 124.87C68.8547 114.452 64.9808 102.063 65 89.3747C65 54.9734 92.8904 27.083 127.292 27.083C161.693 27.083 189.583 54.9734 189.583 89.3747C189.592 97.3105 188.081 105.175 185.131 112.542C184.589 112.401 184.047 112.271 183.49 112.152L171.654 109.611C175.043 102.184 176.512 94.0248 175.928 85.8819C175.343 77.7391 172.722 69.8735 168.307 63.0069C163.891 56.1403 157.822 50.4925 150.655 46.5819C143.489 42.6712 135.455 40.6228 127.292 40.6247ZM116.458 89.3747C116.458 86.5015 117.6 83.746 119.631 81.7144C121.663 79.6827 124.418 78.5413 127.292 78.5413C130.165 78.5413 132.92 79.6827 134.952 81.7144C136.984 83.746 138.125 86.5015 138.125 89.3747V121.875C138.125 125.071 140.357 127.828 143.477 128.494L178.376 135.985C180.719 136.488 182.935 137.465 184.887 138.854C186.839 140.243 188.487 142.017 189.73 144.066C190.973 146.114 191.785 148.395 192.115 150.769C192.446 153.142 192.288 155.558 191.652 157.868L179.221 203.076C178.721 204.896 177.688 206.525 176.256 207.754C174.824 208.984 173.058 209.757 171.183 209.977L137.372 213.936C136.954 213.968 136.539 213.849 136.202 213.6C135.586 213.181 135.097 212.6 134.788 211.921C127.015 195.281 107.185 177.179 68.2067 159.271C68.8502 157.31 69.882 155.499 71.2408 153.946C72.5995 152.392 74.2572 151.128 76.1151 150.23C77.9729 149.331 79.9927 148.815 82.054 148.714C84.1154 148.613 86.176 148.928 88.1129 149.641L107.347 156.72C108.371 157.097 109.47 157.221 110.552 157.082C111.634 156.943 112.666 156.544 113.561 155.92C114.455 155.296 115.186 154.465 115.69 153.499C116.195 152.532 116.458 151.457 116.458 150.366V89.3747ZM127.292 64.9997C120.827 64.9997 114.627 67.5677 110.056 72.1389C105.485 76.7101 102.917 82.91 102.917 89.3747V140.66L92.7875 136.933C75.79 130.677 57.2921 141.418 54.3021 159.288C53.926 161.574 54.3158 163.92 55.411 165.961C56.5062 168.003 58.2453 169.625 60.3579 170.576C99.8617 188.38 116.664 205.118 122.52 217.647C125.168 223.318 131.311 228.28 138.948 227.386L172.759 223.426C177.312 222.894 181.602 221.014 185.08 218.028C188.558 215.043 191.065 211.087 192.281 206.667L204.712 161.454C205.836 157.367 206.113 153.093 205.527 148.894C204.941 144.696 203.504 140.661 201.304 137.037C199.104 133.413 196.188 130.277 192.734 127.82C189.279 125.362 185.359 123.636 181.215 122.747L151.667 116.404V89.3747C151.667 82.91 149.099 76.7101 144.527 72.1389C139.956 67.5677 133.756 64.9997 127.292 64.9997Z" fill="black"/>
</svg>
